# Blender v2.78 (sub 0) OBJ File: 'pcraven_wood_chair3.blend'
# www.blender.org
mtllib chair.mtl
o Wooden_Chair_Chair_mesh
v 1.470242 -0.029684 -0.851741
v 1.454833 -0.029684 0.879531
v 1.454833 -0.103500 0.879531
v 1.470242 -0.103500 -0.851741
v -0.316264 -0.031392 0.823706
v -0.301568 -0.031392 -0.827449
v -0.301568 -0.101792 -0.827449
v -0.316264 -0.101792 0.823706
v 1.456520 -0.029684 0.689963
v -0.543086 -0.031613 0.636842
v -0.543086 -0.101571 0.636842
v 1.456520 -0.103500 0.689963
v -0.314655 -0.031392 0.642910
v -0.314655 -0.101792 0.642910
v 1.468338 -0.029684 -0.637878
v -0.531885 -0.031613 -0.621626
v -0.531885 -0.101571 -0.621626
v 1.468338 -0.103500 -0.637878
v -0.303383 -0.031392 -0.623483
v -0.303383 -0.101792 -0.623483
v 1.159046 -0.080225 0.821321
v 1.160826 -0.080225 0.621356
v 1.404554 -0.080225 0.623525
v 1.402774 -0.080225 0.823491
v 1.207525 -1.785329 0.740439
v 1.208608 -1.785329 0.618835
v 1.356825 -1.785329 0.620154
v 1.355743 -1.785329 0.741758
v 1.220411 -1.785329 -0.707382
v 1.219329 -1.785329 -0.585777
v 1.367546 -1.785329 -0.584458
v 1.368629 -1.785329 -0.706062
v 1.173380 -0.080225 -0.789114
v 1.171600 -0.080225 -0.589149
v 1.415328 -0.080225 -0.586980
v 1.417108 -0.080225 -0.786945
v -0.308785 -0.080225 -0.824008
v -0.310565 -0.080225 -0.624042
v -0.554293 -0.080225 -0.626211
v -0.552514 -0.080225 -0.826177
v -0.357264 -1.785329 -0.743125
v -0.358347 -1.785329 -0.621521
v -0.506564 -1.785329 -0.622840
v -0.505482 -1.785329 -0.744444
v -0.552514 -0.080225 -0.826177
v -0.310565 -0.080225 -0.624042
v -0.308785 -0.080225 -0.824008
v -0.531885 -0.101571 -0.621626
v -0.554293 0.029401 -0.626211
v -0.552514 0.029401 -0.826177
v -0.308785 0.029401 -0.824008
v -0.310565 0.029401 -0.624042
v -0.530739 1.944229 -0.664018
v -0.681802 1.944229 -0.665363
v -0.529636 1.944229 -0.787957
v -0.680699 1.944229 -0.789301
v -0.693726 1.944229 0.674297
v -0.542662 1.944229 0.675642
v -0.694829 1.944229 0.798236
v -0.543765 1.944229 0.799581
v -0.323592 0.029401 0.839556
v -0.321812 0.029401 0.639591
v -0.565540 0.029401 0.637422
v -0.567320 0.029401 0.837387
v -0.321812 -0.080225 0.639591
v -0.323592 -0.080225 0.839556
v -0.565540 -0.080225 0.637422
v -0.517749 -1.785329 0.633884
v -0.518832 -1.785329 0.755488
v -0.370614 -1.785329 0.756807
v -0.369532 -1.785329 0.635203
v -0.565540 -0.080225 0.637422
v -0.567320 -0.080225 0.837387
v -0.323592 -0.080225 0.839556
v -0.321812 -0.080225 0.639591
v -0.699396 1.934406 0.675466
v -0.674065 1.938221 -0.666591
v -0.526005 1.944072 -0.664267
v -0.551336 1.940256 0.677789
v -0.688011 1.646472 0.675092
v -0.662680 1.650288 -0.666964
v -0.514620 1.656138 -0.664640
v -0.539951 1.652323 0.677416
v -0.383233 -0.679194 0.664195
v -0.371543 -0.679194 -0.649281
v -0.485613 -0.679194 -0.650297
v -0.497303 -0.679194 0.663179
v -0.383233 -0.540837 0.664195
v -0.371543 -0.540837 -0.649281
v -0.485613 -0.540837 -0.650297
v -0.497303 -0.540837 0.663179
v 1.195148 -0.545055 0.638195
v 1.206125 -0.545055 -0.595193
v 1.313240 -0.545055 -0.594239
v 1.302263 -0.545055 0.639149
v 1.195148 -0.674976 0.638195
v 1.206125 -0.674976 -0.595193
v 1.313240 -0.674976 -0.594239
v 1.302263 -0.674976 0.639149
v -0.370267 -1.113650 0.650432
v 1.230667 -1.113650 0.664681
v 1.229834 -1.113650 0.758269
v -0.371101 -1.113650 0.744020
v -0.370267 -1.252008 0.650432
v 1.230667 -1.252008 0.664681
v 1.229834 -1.252008 0.758269
v -0.371101 -1.252008 0.744020
v -0.358933 -1.252008 -0.623085
v 1.242001 -1.252008 -0.608836
v 1.242835 -1.252008 -0.702424
v -0.358099 -1.252008 -0.716673
v -0.358933 -1.113650 -0.623085
v 1.242001 -1.113650 -0.608836
v 1.242835 -1.113650 -0.702424
v -0.358099 -1.113650 -0.716673
v -0.472290 0.413183 0.658829
v -0.460641 0.413183 -0.650072
v -0.567756 0.413183 -0.651026
v -0.579405 0.413183 0.657875
v -0.472290 0.543104 0.658829
v -0.460641 0.543104 -0.650072
v -0.567756 0.543104 -0.651026
v -0.579405 0.543104 0.657875
v -0.664552 1.668121 -0.064254
v -0.566030 0.531749 -0.066105
v -0.490772 0.538272 -0.065182
v -0.589295 1.674644 -0.063331
v -0.665571 1.667823 0.010913
v -0.567048 0.531450 0.009062
v -0.491791 0.537974 0.009985
v -0.590314 1.674346 0.011836
v -0.587750 1.675097 -0.177351
v -0.489227 0.538725 -0.179202
v -0.564484 0.532201 -0.180125
v -0.663007 1.668574 -0.178274
v -0.586731 1.675395 -0.252518
v -0.488208 0.539023 -0.254369
v -0.563465 0.532500 -0.255292
v -0.661989 1.668872 -0.253441
v -0.667282 1.667321 0.137139
v -0.568759 0.530949 0.135288
v -0.493502 0.537473 0.136211
v -0.592025 1.673845 0.138062
v -0.668301 1.667023 0.212307
v -0.569778 0.530651 0.210455
v -0.494521 0.537174 0.211378
v -0.593043 1.673547 0.213230
vn -0.0137 0.0000 -0.9999
vn -0.0315 0.0000 0.9995
vn 1.0000 0.0000 0.0089
vn -0.0010 1.0000 -0.0000
vn -0.0010 -1.0000 -0.0000
vn -1.0000 0.0000 -0.0089
vn -0.0081 0.0000 -1.0000
vn -0.0266 0.0000 0.9996
vn 0.0000 1.0000 0.0000
vn 0.0000 -1.0000 0.0000
vn -0.9996 -0.0280 -0.0089
vn 0.0089 0.0017 -1.0000
vn 0.9996 -0.0280 0.0089
vn -0.0089 -0.0476 0.9988
vn 0.0089 -0.0476 -0.9988
vn -0.0089 0.0017 1.0000
vn -0.9996 0.0280 -0.0089
vn 0.0089 -0.0017 -1.0000
vn 0.9996 0.0280 0.0089
vn -0.0089 0.0476 0.9988
vn 0.0000 0.0000 1.0000
vn 0.0089 0.0000 -1.0000
vn -0.0089 0.0000 1.0000
vn -0.0089 0.0198 0.9998
vn 0.9934 0.1144 0.0088
vn 0.0089 0.0198 -0.9998
vn -0.9977 -0.0666 -0.0089
vn -0.0089 -0.0023 1.0000
vn 0.0089 0.0482 -0.9988
vn 0.0395 -0.9992 -0.0021
vn -0.0395 0.9992 0.0021
vn 0.9990 0.0395 0.0190
vn -0.0156 -0.0019 0.9999
vn -0.9990 -0.0395 -0.0190
vn 0.0156 0.0019 -0.9999
vn -0.0120 -0.0027 0.9999
vn 0.0120 0.0027 -0.9999
vn 0.9962 0.0863 0.0138
vn -0.0864 0.9963 0.0028
vn -0.9962 -0.0863 -0.0138
vn 0.0864 -0.9963 -0.0028
usemtl Wood
s off
f 6//1 1//1 4//1 7//1
f 2//2 5//2 8//2 3//2
f 9//3 2//3 3//3 12//3
f 13//4 5//4 2//4 9//4
f 12//5 3//5 8//5 14//5
f 10//6 16//6 17//6 11//6
f 1//3 15//3 18//3 4//3
f 15//3 9//3 12//3 18//3
f 15//4 1//4 6//4 19//4
f 19//4 13//4 9//4 15//4
f 16//4 10//4 13//4 19//4
f 20//5 14//5 11//5 17//5
f 4//5 18//5 20//5 7//5
f 18//5 12//5 14//5 20//5
f 6//6 7//6 20//6 19//6
f 16//7 19//7 20//7 17//7
f 10//8 11//8 14//8 13//8
f 5//6 13//6 14//6 8//6
f 23//9 22//9 21//9 24//9
f 25//10 26//10 27//10 28//10
f 21//11 22//11 26//11 25//11
f 22//12 23//12 27//12 26//12
f 23//13 24//13 28//13 27//13
f 24//14 21//14 25//14 28//14
f 33//15 36//15 32//15 29//15
f 34//11 33//11 29//11 30//11
f 35//16 34//16 30//16 31//16
f 36//13 35//13 31//13 32//13
f 32//10 31//10 30//10 29//10
f 34//9 35//9 36//9 33//9
f 41//9 44//9 43//9 42//9
f 37//17 41//17 42//17 38//17
f 38//18 42//18 43//18 39//18
f 39//19 43//19 44//19 40//19
f 40//20 44//20 41//20 37//20
f 40//21 37//21 47//21 45//21
f 37//21 38//21 46//21 47//21
f 39//6 49//6 50//6 40//6
f 40//22 50//22 51//22 37//22
f 37//3 51//3 52//3 38//3
f 38//23 52//23 49//23 39//23
f 52//24 53//24 54//24 49//24
f 51//25 55//25 53//25 52//25
f 50//26 56//26 55//26 51//26
f 49//27 54//27 56//27 50//27
f 54//9 53//9 55//9 56//9
f 59//9 60//9 58//9 57//9
f 64//27 59//27 57//27 63//27
f 63//26 57//26 58//26 62//26
f 62//25 58//25 60//25 61//25
f 61//24 60//24 59//24 64//24
f 74//23 61//23 64//23 73//23
f 75//3 62//3 61//3 74//3
f 72//22 63//22 62//22 75//22
f 73//6 64//6 63//6 72//6
f 75//21 74//21 66//21 65//21
f 72//21 75//21 65//21 67//21
f 72//28 68//28 71//28 75//28
f 73//19 69//19 68//19 72//19
f 74//29 70//29 69//29 73//29
f 75//17 71//17 70//17 74//17
f 71//9 68//9 69//9 70//9
f 78//30 79//30 76//30 77//30
f 80//31 83//31 82//31 81//31
f 76//32 80//32 81//32 77//32
f 77//33 81//33 82//33 78//33
f 78//34 82//34 83//34 79//34
f 79//35 83//35 80//35 76//35
f 88//22 84//22 87//22 91//22
f 89//6 85//6 84//6 88//6
f 90//23 86//23 85//23 89//23
f 91//3 87//3 86//3 90//3
f 87//9 84//9 85//9 86//9
f 89//10 88//10 91//10 90//10
f 94//10 95//10 92//10 93//10
f 96//9 99//9 98//9 97//9
f 92//3 96//3 97//3 93//3
f 93//23 97//23 98//23 94//23
f 94//6 98//6 99//6 95//6
f 95//22 99//22 96//22 92//22
f 102//10 103//10 100//10 101//10
f 104//9 107//9 106//9 105//9
f 100//23 104//23 105//23 101//23
f 101//6 105//6 106//6 102//6
f 102//22 106//22 107//22 103//22
f 103//3 107//3 104//3 100//3
f 112//3 108//3 111//3 115//3
f 113//22 109//22 108//22 112//22
f 114//6 110//6 109//6 113//6
f 115//23 111//23 110//23 114//23
f 111//9 108//9 109//9 110//9
f 113//10 112//10 115//10 114//10
f 120//22 116//22 119//22 123//22
f 121//6 117//6 116//6 120//6
f 122//23 118//23 117//23 121//23
f 123//3 119//3 118//3 122//3
f 119//9 116//9 117//9 118//9
f 121//10 120//10 123//10 122//10
f 126//36 127//36 124//36 125//36
f 128//37 131//37 130//37 129//37
f 124//38 128//38 129//38 125//38
f 125//39 129//39 130//39 126//39
f 126//40 130//40 131//40 127//40
f 127//41 131//41 128//41 124//41
f 136//41 132//41 135//41 139//41
f 137//40 133//40 132//40 136//40
f 138//39 134//39 133//39 137//39
f 139//38 135//38 134//38 138//38
f 135//37 132//37 133//37 134//37
f 137//36 136//36 139//36 138//36
f 142//36 143//36 140//36 141//36
f 144//37 147//37 146//37 145//37
f 140//38 144//38 145//38 141//38
f 141//39 145//39 146//39 142//39
f 142//40 146//40 147//40 143//40
f 143//41 147//41 144//41 140//41
l 17 48
